<svg width="1600" height="900" viewBox="0 0 1600 900" xmlns="http://www.w3.org/2000/svg">
  <rect width="1600" height="900" fill="#0b1220"/>
  <text x="70" y="80" fill="#e2e8f0" font-family="Segoe UI, Arial, sans-serif" font-size="40" font-weight="700">UI Preview Mockups</text>

  <rect x="70" y="130" width="700" height="330" rx="20" fill="#111827" stroke="#334155"/>
  <rect x="90" y="170" width="240" height="18" rx="9" fill="#22c55e"/>
  <rect x="90" y="205" width="170" height="14" rx="7" fill="#334155"/>
  <rect x="90" y="240" width="660" height="200" rx="14" fill="#1e293b"/>
  <polyline points="110,390 170,330 260,350 340,280 430,300 520,250 620,270 720,220" fill="none" stroke="#22d3ee" stroke-width="6"/>
  <text x="90" y="285" fill="#94a3b8" font-family="Segoe UI, Arial, sans-serif" font-size="20">Dashboard chart and KPIs</text>

  <rect x="830" y="130" width="700" height="330" rx="20" fill="#111827" stroke="#334155"/>
  <rect x="860" y="170" width="300" height="18" rx="9" fill="#f97316"/>
  <rect x="860" y="205" width="220" height="14" rx="7" fill="#334155"/>
  <rect x="860" y="240" width="300" height="180" rx="12" fill="#0f172a" stroke="#64748b" stroke-dasharray="10 8"/>
  <circle cx="1010" cy="330" r="60" fill="#1e293b" stroke="#94a3b8"/>
  <text x="1210" y="285" fill="#94a3b8" font-family="Segoe UI, Arial, sans-serif" font-size="20">Face ID check-in modal</text>

  <rect x="70" y="500" width="1460" height="330" rx="20" fill="#111827" stroke="#334155"/>
  <rect x="100" y="540" width="240" height="18" rx="9" fill="#60a5fa"/>
  <rect x="100" y="575" width="1250" height="34" rx="8" fill="#1e293b"/>
  <rect x="100" y="625" width="1370" height="170" rx="10" fill="#0f172a"/>
  <line x1="100" y1="667" x2="1470" y2="667" stroke="#1e293b"/>
  <line x1="100" y1="709" x2="1470" y2="709" stroke="#1e293b"/>
  <line x1="100" y1="751" x2="1470" y2="751" stroke="#1e293b"/>
  <text x="100" y="610" fill="#94a3b8" font-family="Segoe UI, Arial, sans-serif" font-size="20">Employee and payroll management tables</text>
</svg>
